<svg xmlns="http://www.w3.org/2000/svg" xmlns:xlink="http://www.w3.org/1999/xlink" fill="none" version="1.1" width="32" height="32.000003814697266" viewBox="0 0 32 32.000003814697266"><defs><clipPath id="master_svg0_296_54302"><rect x="0" y="0" width="32" height="32.000003814697266" rx="0"/></clipPath><linearGradient x1="0.10611901432275772" y1="0.9834379553794861" x2="1.0141383364840217" y2="0.7028600806934713" id="master_svg1_4_1344"><stop offset="0%" stop-color="#615CED" stop-opacity="0.5"/><stop offset="0%" stop-color="#6964ED" stop-opacity="0.5299999713897705"/><stop offset="0.9999999776482582%" stop-color="#8884F1" stop-opacity="0.6200000047683716"/><stop offset="2.9999999329447746%" stop-color="#A4A2F4" stop-opacity="0.7200000286102295"/><stop offset="3.999999910593033%" stop-color="#BDBBF7" stop-opacity="0.7900000214576721"/><stop offset="5.999999865889549%" stop-color="#D2D0F9" stop-opacity="0.8600000143051147"/><stop offset="7.000000029802322%" stop-color="#E2E1FB" stop-opacity="0.9100000262260437"/><stop offset="9.000000357627869%" stop-color="#EFEFFD" stop-opacity="0.949999988079071"/><stop offset="11.999999731779099%" stop-color="#F8F8FE" stop-opacity="0.9800000190734863"/><stop offset="15.000000596046448%" stop-color="#FDFDFE" stop-opacity="1"/><stop offset="25%" stop-color="#FFFFFF" stop-opacity="1"/></linearGradient><linearGradient x1="0.9915931820869446" y1="0.7900100946426392" x2="0.03621390183491716" y2="-0.03590294386446602" id="master_svg2_4_1341"><stop offset="0%" stop-color="#615CED" stop-opacity="0.5"/><stop offset="0%" stop-color="#6964ED" stop-opacity="0.5299999713897705"/><stop offset="0.9999999776482582%" stop-color="#8884F1" stop-opacity="0.6200000047683716"/><stop offset="2.9999999329447746%" stop-color="#A4A2F4" stop-opacity="0.7200000286102295"/><stop offset="3.999999910593033%" stop-color="#BDBBF7" stop-opacity="0.7900000214576721"/><stop offset="5.999999865889549%" stop-color="#D2D0F9" stop-opacity="0.8600000143051147"/><stop offset="7.000000029802322%" stop-color="#E2E1FB" stop-opacity="0.9100000262260437"/><stop offset="9.000000357627869%" stop-color="#EFEFFD" stop-opacity="0.949999988079071"/><stop offset="11.999999731779099%" stop-color="#F8F8FE" stop-opacity="0.9800000190734863"/><stop offset="15.000000596046448%" stop-color="#FDFDFE" stop-opacity="1"/><stop offset="25%" stop-color="#FFFFFF" stop-opacity="1"/></linearGradient><linearGradient x1="0.5" y1="0" x2="0.5" y2="1" id="master_svg3_4_1338"><stop offset="0%" stop-color="#615CED" stop-opacity="0.5"/><stop offset="0%" stop-color="#6964ED" stop-opacity="0.5299999713897705"/><stop offset="0.9999999776482582%" stop-color="#8884F1" stop-opacity="0.6200000047683716"/><stop offset="2.9999999329447746%" stop-color="#A4A2F4" stop-opacity="0.7200000286102295"/><stop offset="3.999999910593033%" stop-color="#BDBBF7" stop-opacity="0.7900000214576721"/><stop offset="5.999999865889549%" stop-color="#D2D0F9" stop-opacity="0.8600000143051147"/><stop offset="7.000000029802322%" stop-color="#E2E1FB" stop-opacity="0.9100000262260437"/><stop offset="9.000000357627869%" stop-color="#EFEFFD" stop-opacity="0.949999988079071"/><stop offset="11.999999731779099%" stop-color="#F8F8FE" stop-opacity="0.9800000190734863"/><stop offset="15.000000596046448%" stop-color="#FDFDFE" stop-opacity="1"/><stop offset="25%" stop-color="#FFFFFF" stop-opacity="1"/></linearGradient><linearGradient x1="0.9286861419677734" y1="0.2500119209289551" x2="0.0712145579939216" y2="0.7499320526603737" id="master_svg4_4_1347"><stop offset="0%" stop-color="#615CED" stop-opacity="1"/><stop offset="17.000000178813934%" stop-color="#6156EC" stop-opacity="1"/><stop offset="37.99999952316284%" stop-color="#6147E9" stop-opacity="1"/><stop offset="61.000001430511475%" stop-color="#622FE4" stop-opacity="1"/><stop offset="62.00000047683716%" stop-color="#632DE4" stop-opacity="1"/></linearGradient><linearGradient x1="0" y1="0.49997615814208984" x2="0.9998583197593689" y2="0.49997615814208984" id="master_svg5_4_1350"><stop offset="0%" stop-color="#615CED" stop-opacity="1"/><stop offset="3.999999910593033%" stop-color="#615CED" stop-opacity="0.9599999785423279"/><stop offset="9.000000357627869%" stop-color="#615CED" stop-opacity="0.8600000143051147"/><stop offset="17.000000178813934%" stop-color="#615CED" stop-opacity="0.6899999976158142"/><stop offset="25%" stop-color="#615CED" stop-opacity="0.46000000834465027"/><stop offset="34.99999940395355%" stop-color="#615CED" stop-opacity="0.1599999964237213"/><stop offset="40.00000059604645%" stop-color="#615CED" stop-opacity="0"/></linearGradient><linearGradient x1="0.7498819231987" y1="0.06276530027389526" x2="0.24996795708113384" y2="0.9371821995841711" id="master_svg6_4_1333"><stop offset="0%" stop-color="#A7A5F6" stop-opacity="1"/><stop offset="5.000000074505806%" stop-color="#9895F4" stop-opacity="0.7900000214576721"/><stop offset="11.999999731779099%" stop-color="#8784F1" stop-opacity="0.550000011920929"/><stop offset="18.99999976158142%" stop-color="#7975F0" stop-opacity="0.3499999940395355"/><stop offset="25%" stop-color="#6F6AEE" stop-opacity="0.20000000298023224"/><stop offset="31.00000023841858%" stop-color="#6762ED" stop-opacity="0.09000000357627869"/><stop offset="36.000001430511475%" stop-color="#625DED" stop-opacity="0.019999999552965164"/><stop offset="40.00000059604645%" stop-color="#615CED" stop-opacity="0"/></linearGradient></defs><g clip-path="url(#master_svg0_296_54302)"><g><g><g><path d="M12.889125800781251,5.115234375L14.44491580078125,7.836634375L12.889125800781251,10.558034375L25.33544580078125,10.558034375L23.77964580078125,13.278344375L11.64428580078125,13.278344375L9.93194580078125,10.285454375L12.889125800781251,5.115234375Z" fill="#FFFFFF" fill-opacity="1"/></g><g><path d="M6.66595458984375,10.55712890625L9.77752458984375,10.55712890625L15.84412458984375,21.17122890625L14.13286458984375,24.16522890625L8.22174458984375,24.16302890625L9.77752458984375,21.44162890625L12.88910458984375,21.44272890625L6.66595458984375,10.55712890625Z" fill="#FFFFFF" fill-opacity="1"/></g><g><path d="M14.44390869140625,24.16316953125L15.99969869140625,26.88456953125L22.22283869140625,16.00008953125L23.777548691406253,18.72148953125L26.89020869140625,18.72148953125L23.93517869140625,13.55126953125L20.51265869140625,13.55236007125L14.44390869140625,24.16316953125Z" fill="#FFFFFF" fill-opacity="1"/></g><g><path d="M12.889125800781251,5.115234375L14.44491580078125,7.836634375L12.889125800781251,10.558034375L25.33544580078125,10.558034375L23.77964580078125,13.278344375L11.64428580078125,13.278344375L9.93194580078125,10.285454375L12.889125800781251,5.115234375Z" fill="url(#master_svg1_4_1344)" fill-opacity="1"/></g><g><path d="M8.22174458984375,24.16400546875L9.77752458984375,21.44260546875L12.88910458984375,21.44260546875L6.66595458984375,10.55810546875L9.77644458984375,10.55810546875L15.84412458984375,21.17110546875L14.13286458984375,24.16510546875L8.22174458984375,24.16400546875Z" fill="url(#master_svg2_4_1341)" fill-opacity="1"/></g><g><path d="M26.89130732421875,18.72148953125L23.778647324218753,18.72148953125L22.22393732421875,16.00008953125L16.000797324218752,26.885669531250002L14.44500732421875,24.16536953125L20.51267732421875,13.55236007125L23.93519732421875,13.55126953125L26.89130732421875,18.72148953125Z" fill="url(#master_svg3_4_1338)" fill-opacity="1"/></g><g><path d="M27.35657216796875,18.4486890625L24.71247216796875,13.8236090625L24.40157216796875,13.2784590625L25.80187216796875,10.8307290625C25.85047216796875,10.7467690625,25.87417216796875,10.6530090625,25.87417216796875,10.5581490625C25.87417216796875,10.463299062499999,25.85047216796875,10.3695290625,25.80187216796875,10.2855790625L24.24607216796875,7.5641790625C24.19747216796875,7.4802190625,24.12947216796875,7.4126190625,24.04847216796875,7.3646490625C23.96857216796875,7.3177690625,23.87467216796875,7.2915990625,23.77857216796875,7.2915990625L17.86637216796875,7.2915990625L16.46607216796875,4.8427750625C16.36997216796875,4.6748680625,16.19177216796875,4.5701989425,15.99967216796875,4.5701989425L12.88807216796875,4.5701989425C12.79198216796875,4.5701989425,12.69913216796875,4.5963662625,12.61923216796875,4.6432493625C12.53826216796875,4.6901320625,12.470242167968749,4.7588220625,12.42166216796875,4.8427750625L9.77650216796875,9.468939062499999L9.465552167968749,10.0119090625L6.66492216796875,10.0119090625C6.5688321679687505,10.0119090625,6.47598216796875,10.0380790625,6.3960921679687495,10.084959062500001C6.31511216796875,10.1318390625,6.24602216796875,10.2005290625,6.19851216796875,10.2844890625L4.64380916796875,13.0058890625C4.59522466796875,13.0898390625,4.57147216796875,13.1836090625,4.57147216796875,13.2784590625C4.57147216796875,13.3733190625,4.59522466796875,13.4670790625,4.64380916796875,13.5510390625L7.59991216796875,18.7212890625L6.19959216796875,21.1700890625C6.15101216796875,21.2539890625,6.12726216796875,21.3477890625,6.12726216796875,21.4426890625C6.12726216796875,21.5374890625,6.15101216796875,21.6312890625,6.19959216796875,21.7151890625L7.75538216796875,24.4365890625C7.80396216796875,24.5205890625,7.87198216796875,24.5881890625,7.952962167968749,24.6361890625C8.03393216796875,24.6830890625,8.12678216796875,24.7091890625,8.22287216796875,24.7091890625L14.13399216796875,24.7091890625L15.53427216796875,27.1579890625C15.63037216796875,27.3259890625,15.80857216796875,27.4294890625,16.000772167968748,27.4305890625L19.11227216796875,27.4305890625C19.20837216796875,27.4305890625,19.301272167968747,27.4044890625,19.38217216796875,27.3575890625C19.46207216796875,27.3106890625,19.531172167968748,27.2419890625,19.57977216796875,27.1579890625L22.53587216796875,21.9877890625L25.33647216796875,21.9877890625C25.43257216796875,21.9877890625,25.52547216796875,21.9616890625,25.60647216796875,21.9147890625C25.68637216796875,21.8678890625,25.75547216796875,21.7991890625,25.80397216796875,21.7151890625L27.35977216796875,18.9937890625C27.40837216796875,18.9098890625,27.43217216796875,18.816089062499998,27.43217216796875,18.7212890625C27.43217216796875,18.6263890625,27.40837216796875,18.5325890625,27.35977216796875,18.4486890625L27.35657216796875,18.4486890625ZM12.88915216796875,5.1153510625L14.44494216796875,7.8367490625L12.88915216796875,10.557059062499999L25.33547216796875,10.557059062499999L23.77967216796875,13.2773690625L11.64430216796875,13.2773690625L9.93197216796875,10.2844890625L12.88915216796875,5.1153510625ZM14.13292216796875,24.1651890625L8.22179216796875,24.1629890625L9.777582167968749,21.4415890625L12.88915216796875,21.4415890625L6.66601216796875,10.557059062499999L9.777582167968749,10.557059062499999L11.333362167968751,13.2784590625L15.84417216796875,21.1711890625L14.13400216796875,24.1651890625L14.13292216796875,24.1651890625ZM23.77747216796875,18.7212890625L22.22277216796875,15.9998890625L15.99967216796875,26.8843890625L14.44386216796875,24.1629890625L16.000772167968748,21.4426890625L20.51257216796875,13.5521290625L23.93517216796875,13.5521290625L26.89017216796875,18.7212890625L23.77747216796875,18.7212890625Z" fill="url(#master_svg4_4_1347)" fill-opacity="1"/></g><g><path d="M27.35657216796875,18.4486890625L24.71247216796875,13.8236090625L24.40157216796875,13.2784590625L25.80187216796875,10.8307290625C25.85047216796875,10.7467690625,25.87417216796875,10.6530090625,25.87417216796875,10.5581490625C25.87417216796875,10.463299062499999,25.85047216796875,10.3695290625,25.80187216796875,10.2855790625L24.24607216796875,7.5641790625C24.19747216796875,7.4802190625,24.12947216796875,7.4126190625,24.04847216796875,7.3646490625C23.96857216796875,7.3177690625,23.87467216796875,7.2915990625,23.77857216796875,7.2915990625L17.86637216796875,7.2915990625L16.46607216796875,4.8427750625C16.36997216796875,4.6748680625,16.19177216796875,4.5701989425,15.99967216796875,4.5701989425L12.88807216796875,4.5701989425C12.79198216796875,4.5701989425,12.69913216796875,4.5963662625,12.61923216796875,4.6432493625C12.53826216796875,4.6901320625,12.470242167968749,4.7588220625,12.42166216796875,4.8427750625L9.77650216796875,9.468939062499999L9.465552167968749,10.0119090625L6.66492216796875,10.0119090625C6.5688321679687505,10.0119090625,6.47598216796875,10.0380790625,6.3960921679687495,10.084959062500001C6.31511216796875,10.1318390625,6.24602216796875,10.2005290625,6.19851216796875,10.2844890625L4.64380916796875,13.0058890625C4.59522466796875,13.0898390625,4.57147216796875,13.1836090625,4.57147216796875,13.2784590625C4.57147216796875,13.3733190625,4.59522466796875,13.4670790625,4.64380916796875,13.5510390625L7.59991216796875,18.7212890625L6.19959216796875,21.1700890625C6.15101216796875,21.2539890625,6.12726216796875,21.3477890625,6.12726216796875,21.4426890625C6.12726216796875,21.5374890625,6.15101216796875,21.6312890625,6.19959216796875,21.7151890625L7.75538216796875,24.4365890625C7.80396216796875,24.5205890625,7.87198216796875,24.5881890625,7.952962167968749,24.6361890625C8.03393216796875,24.6830890625,8.12678216796875,24.7091890625,8.22287216796875,24.7091890625L14.13399216796875,24.7091890625L15.53427216796875,27.1579890625C15.63037216796875,27.3259890625,15.80857216796875,27.4294890625,16.000772167968748,27.4305890625L19.11227216796875,27.4305890625C19.20837216796875,27.4305890625,19.301272167968747,27.4044890625,19.38217216796875,27.3575890625C19.46207216796875,27.3106890625,19.531172167968748,27.2419890625,19.57977216796875,27.1579890625L22.53587216796875,21.9877890625L25.33647216796875,21.9877890625C25.43257216796875,21.9877890625,25.52547216796875,21.9616890625,25.60647216796875,21.9147890625C25.68637216796875,21.8678890625,25.75547216796875,21.7991890625,25.80397216796875,21.7151890625L27.35977216796875,18.9937890625C27.40837216796875,18.9098890625,27.43217216796875,18.816089062499998,27.43217216796875,18.7212890625C27.43217216796875,18.6263890625,27.40837216796875,18.5325890625,27.35977216796875,18.4486890625L27.35657216796875,18.4486890625ZM12.88915216796875,5.1153510625L14.44494216796875,7.8367490625L12.88915216796875,10.557059062499999L25.33547216796875,10.557059062499999L23.77967216796875,13.2773690625L11.64430216796875,13.2773690625L9.93197216796875,10.2844890625L12.88915216796875,5.1153510625ZM14.13292216796875,24.1651890625L8.22179216796875,24.1629890625L9.777582167968749,21.4415890625L12.88915216796875,21.4415890625L6.66601216796875,10.557059062499999L9.777582167968749,10.557059062499999L11.333362167968751,13.2784590625L15.84417216796875,21.1711890625L14.13400216796875,24.1651890625L14.13292216796875,24.1651890625ZM23.77747216796875,18.7212890625L22.22277216796875,15.9998890625L15.99967216796875,26.8843890625L14.44386216796875,24.1629890625L16.000772167968748,21.4426890625L20.51257216796875,13.5521290625L23.93517216796875,13.5521290625L26.89017216796875,18.7212890625L23.77747216796875,18.7212890625Z" fill="url(#master_svg5_4_1350)" fill-opacity="1"/></g><g><path d="M27.35657216796875,18.4486890625L24.71247216796875,13.8236090625L24.40157216796875,13.2784590625L25.80187216796875,10.8307290625C25.85047216796875,10.7467690625,25.87417216796875,10.6530090625,25.87417216796875,10.5581490625C25.87417216796875,10.463299062499999,25.85047216796875,10.3695290625,25.80187216796875,10.2855790625L24.24607216796875,7.5641790625C24.19747216796875,7.4802190625,24.12947216796875,7.4126190625,24.04847216796875,7.3646490625C23.96857216796875,7.3177690625,23.87467216796875,7.2915990625,23.77857216796875,7.2915990625L17.86637216796875,7.2915990625L16.46607216796875,4.8427750625C16.36997216796875,4.6748680625,16.19177216796875,4.5701989425,15.99967216796875,4.5701989425L12.88807216796875,4.5701989425C12.79198216796875,4.5701989425,12.69913216796875,4.5963662625,12.61923216796875,4.6432493625C12.53826216796875,4.6901320625,12.470242167968749,4.7588220625,12.42166216796875,4.8427750625L9.77650216796875,9.468939062499999L9.465552167968749,10.0119090625L6.66492216796875,10.0119090625C6.5688321679687505,10.0119090625,6.47598216796875,10.0380790625,6.3960921679687495,10.084959062500001C6.31511216796875,10.1318390625,6.24602216796875,10.2005290625,6.19851216796875,10.2844890625L4.64380916796875,13.0058890625C4.59522466796875,13.0898390625,4.57147216796875,13.1836090625,4.57147216796875,13.2784590625C4.57147216796875,13.3733190625,4.59522466796875,13.4670790625,4.64380916796875,13.5510390625L7.59991216796875,18.7212890625L6.19959216796875,21.1700890625C6.15101216796875,21.2539890625,6.12726216796875,21.3477890625,6.12726216796875,21.4426890625C6.12726216796875,21.5374890625,6.15101216796875,21.6312890625,6.19959216796875,21.7151890625L7.75538216796875,24.4365890625C7.80396216796875,24.5205890625,7.87198216796875,24.5881890625,7.952962167968749,24.6361890625C8.03393216796875,24.6830890625,8.12678216796875,24.7091890625,8.22287216796875,24.7091890625L14.13399216796875,24.7091890625L15.53427216796875,27.1579890625C15.63037216796875,27.3259890625,15.80857216796875,27.4294890625,16.000772167968748,27.4305890625L19.11227216796875,27.4305890625C19.20837216796875,27.4305890625,19.301272167968747,27.4044890625,19.38217216796875,27.3575890625C19.46207216796875,27.3106890625,19.531172167968748,27.2419890625,19.57977216796875,27.1579890625L22.53587216796875,21.9877890625L25.33647216796875,21.9877890625C25.43257216796875,21.9877890625,25.52547216796875,21.9616890625,25.60647216796875,21.9147890625C25.68637216796875,21.8678890625,25.75547216796875,21.7991890625,25.80397216796875,21.7151890625L27.35977216796875,18.9937890625C27.40837216796875,18.9098890625,27.43217216796875,18.816089062499998,27.43217216796875,18.7212890625C27.43217216796875,18.6263890625,27.40837216796875,18.5325890625,27.35977216796875,18.4486890625L27.35657216796875,18.4486890625ZM12.88915216796875,5.1153510625L14.44494216796875,7.8367490625L12.88915216796875,10.557059062499999L25.33547216796875,10.557059062499999L23.77967216796875,13.2773690625L11.64430216796875,13.2773690625L9.93197216796875,10.2844890625L12.88915216796875,5.1153510625ZM14.13292216796875,24.1651890625L8.22179216796875,24.1629890625L9.777582167968749,21.4415890625L12.88915216796875,21.4415890625L6.66601216796875,10.557059062499999L9.777582167968749,10.557059062499999L11.333362167968751,13.2784590625L15.84417216796875,21.1711890625L14.13400216796875,24.1651890625L14.13292216796875,24.1651890625ZM23.77747216796875,18.7212890625L22.22277216796875,15.9998890625L15.99967216796875,26.8843890625L14.44386216796875,24.1629890625L16.000772167968748,21.4426890625L20.51257216796875,13.5521290625L23.93517216796875,13.5521290625L26.89017216796875,18.7212890625L23.77747216796875,18.7212890625Z" fill="url(#master_svg6_4_1333)" fill-opacity="1"/></g></g></g></g></svg>